<?xml version="1.0" encoding="UTF-8"?><svg id="Camada_1" xmlns="http://www.w3.org/2000/svg" viewBox="0 0 750 243.52"><defs><style>.cls-1{fill:#fff;}.cls-2{fill:#fed16e;}</style></defs><path class="cls-2" d="m666.24,164.63v14.2c0,5.02,2.73,7.13,6.11,7.13s6.11-2.12,6.11-7.13v-14.2h4.57v13.58c0,6.04-2.52,12.08-10.68,12.08s-10.68-6.04-10.68-12.08v-13.58h4.57Z"/><path class="cls-2" d="m706.36,168.83h-13.58v6.42h10.68l-.44,3.96h-10.24v10.34h-4.54v-24.91h18.6l-.48,4.2Z"/><path class="cls-2" d="m732.53,172.69l-4.64,1.26c-.85-3.72-3.07-5.73-7.3-5.73-4.71,0-7.27,4.1-7.27,8.26,0,5.25,3.07,9.11,7.71,9.11,3.69,0,6.01-2.66,6.89-5.49l4.61.89c-1.26,5.22-5.32,8.91-11.43,8.91-7.61,0-12.49-5.46-12.49-12.76,0-8.16,4.74-13.14,12.66-13.14,5.26,0,9.9,2.46,11.26,8.7Z"/><path class="cls-1" d="m255.72,136.76c9.01,0,19.07-6.53,20.9-13.97l11.49,2.48c-3.4,13.06-17.5,22.33-32.26,22.33-19.98,0-33.44-14.5-33.44-34.09,0-21.42,12.28-35.13,34.87-35.13,16.72,0,28.73,9.8,30.56,21.42l-11.62,4.18c-3-10.19-10.71-14.63-21.68-14.63-12.93,0-20.38,10.06-20.38,23.25s9.14,24.16,21.55,24.16Z"/><path class="cls-1" d="m329.9,78.37c19.59,0,35.13,15.28,35.13,34.61s-15.54,34.61-35.13,34.61-34.61-15.15-34.61-34.61,14.89-34.61,34.61-34.61Zm0,57.47c12.41,0,22.99-10.32,22.99-22.86s-10.58-22.73-22.99-22.73-22.6,10.58-22.6,22.73,10.19,22.86,22.6,22.86Z"/><path class="cls-1" d="m377.69,146.29v-65.83l4.31-1.05c3,2.35,5.36,5.36,7.18,8.88,4.57-6.14,15.54-9.93,23.9-9.93,16.2,0,30.3,9.93,30.3,27.3v40.62h-12.02v-38.01c0-10.97-9.4-18.94-19.72-18.94-8.49,0-21.68,6.92-21.68,13.84v43.1h-12.28Z"/><path class="cls-1" d="m461.14,146.29v-65.83l4.31-1.05c3,2.35,5.35,5.36,7.18,8.88,4.57-6.14,15.54-9.93,23.9-9.93,16.2,0,30.3,9.93,30.3,27.3v40.62h-12.02v-38.01c0-10.97-9.4-18.94-19.72-18.94-8.49,0-21.68,6.92-21.68,13.84v43.1h-12.28Z"/><path class="cls-1" d="m602.32,101.1c.39,1.57.91,4.31.91,6.66,0,6.92-4.96,9.01-10.84,9.01h-41.4c.65,11.75,11.36,19.98,21.55,19.98,7.97,0,15.15-4.05,18.42-10.06l9.01,5.62c-5.75,8.62-13.97,15.28-27.82,15.28-17.76,0-32.52-15.15-32.52-35.53s13.32-33.7,32.52-33.7c15.93,0,26.25,9.27,30.17,22.73Zm-50.94,6.01h40.88c-1.57-9.8-9.27-18.02-20.11-18.02s-19.59,7.84-20.77,18.02Z"/><path class="cls-1" d="m644.24,136.76c9.01,0,19.07-6.53,20.9-13.97l11.49,2.48c-3.4,13.06-17.5,22.33-32.26,22.33-19.98,0-33.44-14.5-33.44-34.09,0-21.42,12.28-35.13,34.87-35.13,16.72,0,28.73,9.8,30.56,21.42l-11.62,4.18c-3-10.19-10.71-14.63-21.68-14.63-12.93,0-20.38,10.06-20.38,23.25s9.14,24.16,21.55,24.16Z"/><path class="cls-1" d="m681.98,84.25l1.83-4.31h4.96v-14.76l13.19-10.97v25.73h24.95l-1.31,10.45h-23.64v27.69c0,12.8,6.66,18.68,13.19,18.68s8.88-.91,11.1-3.66l6.27,10.19c-3,3-9.67,4.31-15.28,4.31-17.11,0-28.47-9.53-28.47-29.65v-27.56l-6.79-6.14Z"/><path class="cls-2" d="m69.81,96.05c2.47-1.02,4.71-2.52,6.6-4.41l9.27-9.27,9.27-9.27c1.89-1.89,3.39-4.13,4.41-6.6l10.2-24.62c.4-.96-.06-2.06-1.02-2.46l-8.47-3.51c-.96-.4-2.06.06-2.46,1.02l-15.65,37.78c-.74,1.79-2.16,3.21-3.95,3.95l-37.78,15.65c-.96.4-1.42,1.5-1.02,2.46l3.51,8.47c.4.96,1.5,1.42,2.46,1.02l24.62-10.2Z"/><path class="cls-2" d="m133.31,66.5c1.02,2.47,2.52,4.71,4.41,6.6l9.27,9.27,9.27,9.27c1.89,1.89,4.13,3.39,6.6,4.41l24.62,10.2c.96.4,2.06-.06,2.46-1.02l3.51-8.47c.4-.96-.06-2.06-1.02-2.46l-37.78-15.65c-1.79-.74-3.21-2.16-3.95-3.95l-15.65-37.78c-.4-.96-1.5-1.42-2.46-1.02l-8.47,3.51c-.96.4-1.42,1.5-1.02,2.46l10.2,24.62Z"/><path class="cls-1" d="m161.24,92.13c-1.02,2.47-1.55,5.12-1.55,7.79v26.22c0,2.67.53,5.32,1.55,7.79l10.2,24.63c.4.96,1.5,1.42,2.46,1.02l8.47-3.51c.96-.4,1.42-1.5,1.02-2.46l-15.65-37.78c-.74-1.79-.74-3.8,0-5.59l15.65-37.78c.4-.96-.06-2.06-1.02-2.46l-8.47-3.51c-.96-.4-2.06.06-2.46,1.02l-10.2,24.63Z"/><path class="cls-2" d="m162.86,130c-2.47,1.02-4.71,2.52-6.6,4.41l-9.27,9.27-9.27,9.27c-1.89,1.89-3.39,4.13-4.41,6.6l-10.2,24.62c-.4.96.06,2.06,1.02,2.46l8.47,3.51c.96.4,2.06-.06,2.46-1.02l15.65-37.78c.74-1.79,2.16-3.21,3.95-3.95l37.78-15.65c.96-.4,1.42-1.5,1.02-2.46l-3.51-8.47c-.4-.96-1.5-1.42-2.46-1.02l-24.62,10.2Z"/><path class="cls-1" d="m95.44,68.12c2.47,1.02,5.12,1.55,7.79,1.55h26.22c2.67,0,5.32-.53,7.79-1.55l24.63-10.2c.96-.4,1.42-1.5,1.02-2.46l-3.51-8.47c-.4-.96-1.5-1.42-2.46-1.02l-37.78,15.65c-1.79.74-3.8.74-5.59,0l-37.78-15.65c-.96-.4-2.06.06-2.46,1.02l-3.51,8.47c-.4.96.06,2.06,1.02,2.46l24.63,10.2Z"/><path class="cls-1" d="m137.23,157.93c-2.47-1.02-5.12-1.55-7.79-1.55h-13.11s-13.11,0-13.11,0c-2.67,0-5.32.53-7.79,1.55l-24.63,10.2c-.96.4-1.42,1.5-1.02,2.46l3.51,8.47c.4.96,1.5,1.42,2.46,1.02l37.78-15.65c1.79-.74,3.8-.74,5.59,0l37.78,15.65c.96.4,2.06-.06,2.46-1.02l3.51-8.47c.4-.96-.06-2.06-1.02-2.46l-24.63-10.2Z"/><path class="cls-2" d="m99.36,159.55c-1.02-2.47-2.52-4.71-4.41-6.6l-9.27-9.27-9.27-9.27c-1.89-1.89-4.13-3.39-6.6-4.41l-24.62-10.2c-.96-.4-2.06.06-2.46,1.02l-3.51,8.47c-.4.96.06,2.06,1.02,2.46l37.78,15.65c1.79.74,3.21,2.16,3.95,3.95l15.65,37.78c.4.96,1.5,1.42,2.46,1.02l8.47-3.51c.96-.4,1.42-1.5,1.02-2.46l-10.2-24.62Z"/><path class="cls-1" d="m71.43,133.92c1.02-2.47,1.55-5.12,1.55-7.79v-26.22c0-2.67-.53-5.32-1.55-7.79l-10.2-24.63c-.4-.96-1.5-1.42-2.46-1.02l-8.47,3.51c-.96.4-1.42,1.5-1.02,2.46l15.65,37.78c.74,1.79.74,3.8,0,5.59l-15.65,37.78c-.4.96.06,2.06,1.02,2.46l8.47,3.51c.96.4,2.06-.06,2.46-1.02l10.2-24.63Z"/><path class="cls-2" d="m89.67,78.37l-4,4-9.26,9.28c-1.89,1.88-4.13,3.39-6.6,4.41l-24.63,10.21c-.96.4-2.07-.06-2.47-1.02l-3.51-8.47c-.4-.97.06-2.07,1.02-2.47l37.79-15.65c.21-.09.41-.19.61-.29h11.04Z"/><path class="cls-2" d="m151.32,75.86h-10.83l-2.76-2.76c-1.89-1.89-3.4-4.13-4.42-6.61l-10.2-24.63c-.4-.96.05-2.05,1.02-2.45l8.47-3.51c.96-.4,2.05.06,2.45,1.02l15.65,37.77c.17.41.37.81.62,1.17Z"/></svg>