<?xml version="1.0" encoding="UTF-8"?><svg id="Camada_1" xmlns="http://www.w3.org/2000/svg" viewBox="0 0 750 243.52"><defs><style>.cls-1{fill:#fff;}.cls-2{fill:#fed16e;}</style></defs><path class="cls-2" d="m612.26,175.03v17.84c0,6.3,3.43,8.96,7.68,8.96s7.68-2.66,7.68-8.96v-17.84h5.75v17.07c0,7.59-3.17,15.18-13.42,15.18s-13.42-7.59-13.42-15.18v-17.07h5.75Z"/><path class="cls-2" d="m662.69,180.3h-17.07v8.06h13.42l-.56,4.97h-12.87v13h-5.7v-31.31h23.37l-.6,5.28Z"/><path class="cls-2" d="m695.58,185.15l-5.83,1.59c-1.07-4.68-3.86-7.21-9.18-7.21-5.92,0-9.13,5.15-9.13,10.38,0,6.6,3.86,11.45,9.69,11.45,4.63,0,7.55-3.35,8.66-6.9l5.79,1.11c-1.59,6.56-6.69,11.19-14.37,11.19-9.56,0-15.7-6.86-15.7-16.04,0-10.25,5.96-16.51,15.91-16.51,6.61,0,12.44,3.09,14.15,10.94Z"/><path class="cls-1" d="m96.28,139.99c11.33,0,23.97-8.21,26.27-17.56l14.45,3.12c-4.27,16.42-22,28.07-40.55,28.07-25.12,0-42.02-18.22-42.02-42.85,0-26.92,15.43-44.16,43.83-44.16,21.01,0,36.11,12.31,38.41,26.92l-14.61,5.25c-3.78-12.8-13.46-18.39-27.25-18.39-16.25,0-25.61,12.64-25.61,29.22s11.49,30.37,27.09,30.37Z"/><path class="cls-1" d="m189.52,66.61c24.62,0,44.16,19.21,44.16,43.5s-19.53,43.5-44.16,43.5-43.5-19.04-43.5-43.5,18.71-43.5,43.5-43.5Zm0,72.23c15.59,0,28.89-12.97,28.89-28.73s-13.3-28.56-28.89-28.56-28.4,13.3-28.4,28.56,12.8,28.73,28.4,28.73Z"/><path class="cls-1" d="m249.59,151.97v-82.74l5.42-1.31c3.78,2.95,6.73,6.73,9.03,11.16,5.74-7.71,19.53-12.48,30.04-12.48,20.36,0,38.08,12.48,38.08,34.31v51.05h-15.1v-47.77c0-13.79-11.82-23.8-24.79-23.8-10.67,0-27.25,8.7-27.25,17.4v54.17h-15.43Z"/><path class="cls-1" d="m354.48,151.97v-82.74l5.42-1.31c3.78,2.95,6.73,6.73,9.03,11.16,5.75-7.71,19.53-12.48,30.04-12.48,20.36,0,38.08,12.48,38.08,34.31v51.05h-15.1v-47.77c0-13.79-11.82-23.8-24.79-23.8-10.67,0-27.25,8.7-27.25,17.4v54.17h-15.43Z"/><path class="cls-1" d="m531.93,95.17c.49,1.97,1.15,5.42,1.15,8.37,0,8.7-6.24,11.33-13.63,11.33h-52.04c.82,14.77,14.28,25.12,27.09,25.12,10.01,0,19.04-5.09,23.15-12.64l11.33,7.06c-7.22,10.83-17.56,19.21-34.97,19.21-22.32,0-40.88-19.04-40.88-44.65s16.74-42.35,40.88-42.35c20.03,0,33,11.66,37.92,28.56Zm-64.02,7.55h51.38c-1.97-12.31-11.66-22.65-25.28-22.65s-24.62,9.85-26.1,22.65Z"/><path class="cls-1" d="m584.61,139.99c11.33,0,23.97-8.21,26.26-17.56l14.45,3.12c-4.27,16.42-22,28.07-40.55,28.07-25.12,0-42.02-18.22-42.02-42.85,0-26.92,15.43-44.16,43.83-44.16,21.01,0,36.12,12.31,38.41,26.92l-14.61,5.25c-3.78-12.8-13.46-18.39-27.25-18.39-16.25,0-25.61,12.64-25.61,29.22s11.49,30.37,27.09,30.37Z"/><path class="cls-1" d="m632.05,74l2.3-5.42h6.24v-18.55l16.58-13.79v32.34h31.35l-1.64,13.13h-29.71v34.8c0,16.09,8.37,23.47,16.58,23.47s11.16-1.15,13.95-4.6l7.88,12.8c-3.78,3.78-12.15,5.42-19.21,5.42-21.5,0-35.79-11.98-35.79-37.26v-34.64l-8.54-7.72Z"/></svg>